# xmcd
#
# Track frame offsets:
#	182
#	12470
#	23977
#	36335
#	46790
#	59237
#	71577
#	82772
#	95662
#	107277
#	121132
#	132680
#	144797
#	158592
#	167540
#	178525
#	188652
#	197440
#	207507
#	218112
#
# Disc length: 3084 seconds
#
# Revision: 2
# Processed by: cddbd v1.5.1PL0 Copyright (c) Steve Scherf et al.
# Submitted via: audiograbber 1.83.01
#
DISCID=100c0a14
DTITLE=Various Artist - Polynesia !
DYEAR=1990
DGENRE=Folklore
TTITLE0=Charley Mauu and les Royal Polynesians - Tamure
TTITLE1=Charley Mauu and les Royal Polynesians - Tiare
TTITLE2=Charley Mauu and les Royal Polynesians - Vanavana
TTITLE3=Charley Mauu and les Royal Polynesians - Tangy tika
TTITLE4=Charley Mauu and les Royal Polynesians - Tau here
TTITLE5=Charley Mauu and les Royal Polynesians - vahine anamite
TTITLE6=Charley Mauu and les Royal Polynesians - Minoi minoi
TTITLE7=Charley Mauu and les Royal Polynesians - Manu rere
TTITLE8=Charley Mauu and les Royal Polynesians - Papio
TTITLE9=Charley Mauu and les Royal Polynesians - Mareva
TTITLE10=Charley Mauu and les Royal Polynesians - Cafe au lait
TTITLE11=Bimbo and les Royal Tahitians - Vahine anamite (2)
TTITLE12=Bimbo and les Royal Tahitians - Etupiti
TTITLE13=Bimbo and les Royal Tahitians - Aue te vahine popaa
TTITLE14=Bimbo and les Royal Tahitians - Manuela boy
TTITLE15=Bimbo and les Royal Tahitians - A ore huruhuru to te manu
TTITLE16=Charley Mauu and les Royal Polynesians - Tapu taa he
TTITLE17=Bimbo and les Royal Tahitians - Pichihua'a aheu'eu
TTITLE18=Bimbo and les Royal Tahitians - Tamure bimbo "to to to e"
TTITLE19=Charley Mauu and les Royal Polynesians - Mauruuru a vau
EXTD=
EXTT0=
EXTT1=
EXTT2=
EXTT3=
EXTT4=
EXTT5=
EXTT6=
EXTT7=
EXTT8=
EXTT9=
EXTT10=
EXTT11=
EXTT12=
EXTT13=
EXTT14=
EXTT15=
EXTT16=
EXTT17=
EXTT18=
EXTT19=
PLAYORDER=
